<svg width="741" height="1290" viewBox="0 0 741 1290" fill="none" xmlns="http://www.w3.org/2000/svg">
<path d="M741 1290H718.494C718.227 1272.01 703.558 1257.5 685.5 1257.5C667.442 1257.5 652.773 1272.01 652.506 1290H628.494C628.227 1272.01 613.558 1257.5 595.5 1257.5C577.442 1257.5 562.773 1272.01 562.506 1290H538.494C538.227 1272.01 523.558 1257.5 505.5 1257.5C487.442 1257.5 472.773 1272.01 472.506 1290H448.494C448.227 1272.01 433.558 1257.5 415.5 1257.5C397.442 1257.5 382.773 1272.01 382.506 1290H358.494C358.227 1272.01 343.558 1257.5 325.5 1257.5C307.442 1257.5 292.773 1272.01 292.506 1290H268.494C268.227 1272.01 253.558 1257.5 235.5 1257.5C217.442 1257.5 202.773 1272.01 202.506 1290H178.494C178.227 1272.01 163.558 1257.5 145.5 1257.5C127.442 1257.5 112.773 1272.01 112.506 1290H88.4941C88.2269 1272.01 73.5584 1257.5 55.5 1257.5C37.4416 1257.5 22.7731 1272.01 22.5059 1290H0V0H741V1290Z" fill="white"/>
</svg>
