<svg preserveAspectRatio="none" width="100%" height="100%" overflow="visible" style="display: block;" viewBox="0 0 741 1290" fill="none" xmlns="http://www.w3.org/2000/svg">
<path id="Subtract" d="M0,24.5 A24.5,24.5 0 0 1 24.5,0 A18.211,18.211 0 0 0 60.921,0 A18.211,18.211 0 0 0 97.342,0 A18.211,18.211 0 0 0 133.763,0 A18.211,18.211 0 0 0 170.184,0 A18.211,18.211 0 0 0 206.605,0 A18.211,18.211 0 0 0 243.026,0 A18.211,18.211 0 0 0 279.447,0 A18.211,18.211 0 0 0 315.868,0 A18.211,18.211 0 0 0 352.289,0 A18.211,18.211 0 0 0 388.711,0 A18.211,18.211 0 0 0 425.132,0 A18.211,18.211 0 0 0 461.553,0 A18.211,18.211 0 0 0 497.974,0 A18.211,18.211 0 0 0 534.395,0 A18.211,18.211 0 0 0 570.816,0 A18.211,18.211 0 0 0 607.237,0 A18.211,18.211 0 0 0 643.658,0 A18.211,18.211 0 0 0 680.079,0 A18.211,18.211 0 0 0 716.5,0 A24.5,24.5 0 0 1 741,24.5 L741,1265.5 A24.5,24.5 0 0 1 716.5,1290 A18.211,18.211 0 0 0 680.079,1290 A18.211,18.211 0 0 0 643.658,1290 A18.211,18.211 0 0 0 607.237,1290 A18.211,18.211 0 0 0 570.816,1290 A18.211,18.211 0 0 0 534.395,1290 A18.211,18.211 0 0 0 497.974,1290 A18.211,18.211 0 0 0 461.553,1290 A18.211,18.211 0 0 0 425.132,1290 A18.211,18.211 0 0 0 388.711,1290 A18.211,18.211 0 0 0 352.289,1290 A18.211,18.211 0 0 0 315.868,1290 A18.211,18.211 0 0 0 279.447,1290 A18.211,18.211 0 0 0 243.026,1290 A18.211,18.211 0 0 0 206.605,1290 A18.211,18.211 0 0 0 170.184,1290 A18.211,18.211 0 0 0 133.763,1290 A18.211,18.211 0 0 0 97.342,1290 A18.211,18.211 0 0 0 60.921,1290 A18.211,18.211 0 0 0 24.5,1290 A24.5,24.5 0 0 1 0,1265.5 L0,24.5 Z" fill="var(--fill-0, white)"/>
</svg>
